<?xml version="1.0" encoding="UTF-8"?>
<svg version="1.1" xmlns="http://www.w3.org/2000/svg" width="72" height="72">
<path d="M0 0 C23.76 0 47.52 0 72 0 C72 23.76 72 47.52 72 72 C48.24 72 24.48 72 0 72 C0 48.24 0 24.48 0 0 Z " fill="#FAFCFD" transform="translate(0,0)"/>
<path d="M0 0 C2.31 0 4.62 0 7 0 C7 23.76 7 47.52 7 72 C-5.21 72 -17.42 72 -30 72 C-28.515 71.505 -28.515 71.505 -27 71 C-26.97494385 70.37955811 -26.9498877 69.75911621 -26.92407227 69.11987305 C-26.80803279 66.30887603 -26.68534241 63.49820759 -26.5625 60.6875 C-26.50352539 59.22280273 -26.50352539 59.22280273 -26.44335938 57.72851562 C-26.40146484 56.79072266 -26.35957031 55.85292969 -26.31640625 54.88671875 C-26.27974854 54.02264404 -26.24309082 53.15856934 -26.20532227 52.26831055 C-26 50 -26 50 -25 47 C-24.72502044 44.76579111 -24.49157325 42.52637629 -24.28125 40.28515625 C-24.21844849 39.63300644 -24.15564697 38.98085663 -24.09094238 38.3089447 C-23.8906364 36.22709768 -23.69483839 34.14486538 -23.5 32.0625 C-23.30500182 29.98372308 -23.10892513 27.90508168 -22.90905762 25.82676697 C-22.72746201 23.93825712 -22.55014642 22.04933717 -22.37304688 20.16040039 C-22 17 -22 17 -21 13 C-14.4 13 -7.8 13 -1 13 C-1 12.34 -1 11.68 -1 11 C-0.34 10.67 0.32 10.34 1 10 C1.11320856 4.91696314 1.11320856 4.91696314 0 0 Z " fill="#FCFDFE" transform="translate(65,0)"/>
<path d="M0 0 C1.36668712 -0.02826078 2.73338593 -0.05596327 4.10009766 -0.08300781 C5.29143311 -0.11442871 6.48276855 -0.14584961 7.71020508 -0.17822266 C8.62906494 -0.07719238 9.5479248 0.02383789 10.49462891 0.12792969 C12.92408051 3.77210709 12.65642465 5.84034241 12.49462891 10.12792969 C11.50462891 10.45792969 10.51462891 10.78792969 9.49462891 11.12792969 C9.49462891 11.78792969 9.49462891 12.44792969 9.49462891 13.12792969 C2.89462891 13.12792969 -3.70537109 13.12792969 -10.50537109 13.12792969 C-10.81845936 16.54454335 -11.13086141 19.96121749 -11.44287109 23.37792969 C-11.5810022 24.88480347 -11.5810022 24.88480347 -11.72192383 26.42211914 C-12.2859225 32.6061223 -12.81491624 38.78954875 -13.25927734 44.98339844 C-13.50537109 47.12792969 -13.50537109 47.12792969 -14.50537109 50.12792969 C-14.65110168 51.60758895 -14.75200377 53.09196812 -14.82177734 54.57714844 C-14.88461914 55.84848633 -14.88461914 55.84848633 -14.94873047 57.14550781 C-14.98804688 58.02658203 -15.02736328 58.90765625 -15.06787109 59.81542969 C-15.13264648 61.15444336 -15.13264648 61.15444336 -15.19873047 62.52050781 C-15.30472462 64.72283077 -15.4067916 66.92526442 -15.50537109 69.12792969 C-16.94070786 69.48695195 -18.37875701 69.83514253 -19.81787109 70.17871094 C-20.61837891 70.37376221 -21.41888672 70.56881348 -22.24365234 70.76977539 C-25.1938105 71.23694746 -26.9591615 70.63974163 -29.50537109 69.12792969 C-31.28592249 67.34737829 -30.72105768 64.85666598 -30.75537109 62.44042969 C-30.72021398 55.64807507 -29.98646686 49.04179813 -29.06787109 42.31542969 C-28.93348633 41.33034424 -28.79910156 40.34525879 -28.66064453 39.33032227 C-27.64215628 32.26471487 -27.64215628 32.26471487 -26.50537109 31.12792969 C-26.28024008 29.78990783 -26.11176303 28.44219945 -25.97021484 27.09277344 C-25.88320313 26.28388672 -25.79619141 25.475 -25.70654297 24.64160156 C-25.61953125 23.79146484 -25.53251953 22.94132812 -25.44287109 22.06542969 C-25.35199219 21.21142578 -25.26111328 20.35742188 -25.16748047 19.47753906 C-24.94286388 17.36141434 -24.72361882 15.24472074 -24.50537109 13.12792969 C-26.94466724 13.57798433 -29.38148887 14.03757845 -31.81787109 14.50292969 C-32.50816406 14.62925781 -33.19845703 14.75558594 -33.90966797 14.88574219 C-37.34240423 15.54907287 -39.55783568 16.16290608 -42.50537109 18.12792969 C-45.63037109 18.31542969 -45.63037109 18.31542969 -48.50537109 18.12792969 C-50.23757038 16.39573041 -49.7182887 14.10766161 -49.75537109 11.75292969 C-49.78115234 10.77582031 -49.80693359 9.79871094 -49.83349609 8.79199219 C-49.50537109 6.12792969 -49.50537109 6.12792969 -48.23974609 4.40136719 C-43.74309889 1.09977487 -39.81960245 0.79692686 -34.32958984 0.71386719 C-33.52737503 0.69450104 -32.72516022 0.67513489 -31.89863586 0.65518188 C-29.33015562 0.59555937 -26.7616219 0.54925261 -24.19287109 0.50292969 C-22.50730515 0.46469869 -20.82175768 0.42564406 -19.13623047 0.38574219 C-15.03906444 0.2920522 -10.94199902 0.22500368 -6.84417725 0.16784668 C-4.56202408 0.1288966 -2.28149367 0.0665606 0 0 Z " fill="#3A8DC3" transform="translate(54.50537109375,-0.1279296875)"/>
<path d="M0 0 C1.05904289 0.00212242 1.05904289 0.00212242 2.13948059 0.00428772 C4.39120751 0.00987861 6.64283446 0.02242937 8.89453125 0.03515625 C10.4225246 0.04017243 11.95051952 0.04473513 13.47851562 0.04882812 C17.2213926 0.05984505 20.96419498 0.07710338 24.70703125 0.09765625 C24.70703125 0.42765625 24.70703125 0.75765625 24.70703125 1.09765625 C23.85471924 1.11223877 23.00240723 1.12682129 22.12426758 1.1418457 C18.9463195 1.2030891 15.76900579 1.27727654 12.59155273 1.36010742 C11.21927167 1.39325431 9.84685763 1.42131796 8.47436523 1.4440918 C6.49565359 1.47782391 4.51731749 1.53167115 2.5390625 1.5859375 C0.75592651 1.62521362 0.75592651 1.62521362 -1.06323242 1.6652832 C-5.5361788 2.26408795 -8.14081471 3.94550221 -11.29296875 7.09765625 C-11.7510855 9.07000958 -11.7510855 9.07000958 -11.91796875 11.22265625 C-12.04171875 12.50140625 -12.16546875 13.78015625 -12.29296875 15.09765625 C-12.62296875 15.09765625 -12.95296875 15.09765625 -13.29296875 15.09765625 C-13.37410981 13.32757911 -13.4322238 11.55643527 -13.48046875 9.78515625 C-13.51527344 8.79902344 -13.55007812 7.81289062 -13.5859375 6.796875 C-13.29296875 4.09765625 -13.29296875 4.09765625 -11.96875 2.3046875 C-8.25406899 -0.3709219 -4.36327007 -0.03290115 0 0 Z " fill="#5DA1CE" transform="translate(18.29296875,1.90234375)"/>
<path d="M0 0 C-0.33 5.94 -0.66 11.88 -1 18 C-1.33 18 -1.66 18 -2 18 C-2 12.72 -2 7.44 -2 2 C-4.64 2 -7.28 2 -10 2 C-7 0 -7 0 0 0 Z " fill="#BDD9EB" transform="translate(30,13)"/>
</svg>
