<?xml version="1.0" standalone="no"?>
<!DOCTYPE svg PUBLIC "-//W3C//DTD SVG 20010904//EN"
 "http://www.w3.org/TR/2001/REC-SVG-20010904/DTD/svg10.dtd">
<svg version="1.0" xmlns="http://www.w3.org/2000/svg"
 width="500.000000pt" height="500.000000pt" viewBox="0 0 500.000000 500.000000"
 preserveAspectRatio="xMidYMid meet">

<g transform="translate(0.000000,500.000000) scale(0.100000,-0.100000)"
fill="#000000" stroke="none">
<path d="M2443 3378 c-34 -27 -231 -196 -358 -307 -17 -14 -59 -51 -95 -81
-36 -30 -70 -59 -76 -65 -29 -27 -128 -110 -152 -129 -15 -11 -29 -23 -32 -26
-3 -3 -89 -77 -193 -163 -143 -121 -187 -163 -187 -181 0 -27 50 -100 79 -115
41 -22 74 -12 131 40 30 28 66 58 80 68 l25 19 0 -445 0 -445 31 -28 c31 -27
35 -28 195 -35 219 -9 1370 -2 1391 8 9 5 25 21 35 35 17 25 18 59 18 469 0
244 2 443 4 443 2 0 37 -31 78 -70 62 -58 81 -70 109 -70 63 0 146 98 122 143
-14 28 -3 17 -223 202 -104 88 -201 169 -215 181 -14 12 -97 81 -185 155 -88
73 -182 153 -210 178 -27 25 -77 69 -109 96 -32 28 -64 55 -70 60 -6 6 -33 29
-58 53 -57 51 -82 53 -135 10z m167 -336 c19 -15 55 -46 80 -68 25 -23 88 -79
140 -124 52 -45 141 -123 198 -172 l102 -90 0 -438 c0 -322 -3 -441 -12 -446
-13 -8 -1229 -6 -1237 2 -4 3 -6 202 -5 442 l1 435 60 56 c85 79 180 163 297
260 55 46 128 107 161 137 33 29 71 61 85 72 l25 20 35 -29 c19 -16 51 -42 70
-57z"/>
<path d="M2220 2491 c-5 -11 -10 -65 -10 -120 l0 -101 125 0 125 0 0 120 0
120 -115 0 c-103 0 -115 -2 -125 -19z"/>
<path d="M2531 2385 l-1 -115 135 0 135 0 0 103 c0 67 -4 107 -12 115 -8 8
-52 12 -134 12 l-122 0 -1 -115z"/>
<path d="M2217 2183 c-9 -8 -9 -206 -1 -227 5 -13 26 -16 125 -16 l119 0 0
125 0 125 -118 0 c-65 0 -122 -3 -125 -7z"/>
<path d="M2537 2183 c-4 -3 -7 -60 -7 -125 l0 -119 133 3 132 3 3 123 3 122
-129 0 c-71 0 -132 -3 -135 -7z"/>
</g>
</svg>
